<svg width="20" height="20" viewBox="0 0 20 20" fill="none" xmlns="http://www.w3.org/2000/svg">
<path d="M6.24975 2.91675C4.95309 2.95591 4.18059 3.10008 3.64559 3.63508C2.91309 4.36841 2.91309 5.54758 2.91309 7.90675V13.3284C2.91309 15.6884 2.91309 16.8676 3.64559 17.6009C4.37725 18.3334 5.55642 18.3334 7.91309 18.3334H12.0798C14.4373 18.3334 15.6156 18.3334 16.3473 17.6001C17.0806 16.8676 17.0806 15.6884 17.0806 13.3284V7.90675C17.0806 5.54841 17.0806 4.36841 16.3473 3.63508C15.8131 3.10008 15.0398 2.95591 13.7431 2.91675" stroke="white" stroke-width="1.5" stroke-linecap="round" stroke-linejoin="round"/>
<path d="M5.41602 8.33341H8.74935M11.2493 9.16675C11.2493 9.16675 11.666 9.16675 12.0827 10.0001C12.0827 10.0001 13.406 7.91675 14.5827 7.50008M5.41602 13.3334H8.74935M11.2493 14.1667C11.2493 14.1667 11.666 14.1667 12.0827 15.0001C12.0827 15.0001 13.406 12.9167 14.5827 12.5001M6.24602 3.12508C6.24602 2.32008 6.89935 1.66675 7.70435 1.66675H12.2877C12.6745 1.66675 13.0454 1.82039 13.3189 2.09388C13.5924 2.36737 13.746 2.73831 13.746 3.12508C13.746 3.51186 13.5924 3.88279 13.3189 4.15628C13.0454 4.42977 12.6745 4.58341 12.2877 4.58341H7.70435C7.31757 4.58341 6.94664 4.42977 6.67315 4.15628C6.39966 3.88279 6.24602 3.51186 6.24602 3.12508Z" stroke="white" stroke-width="1.5" stroke-linecap="round" stroke-linejoin="round"/>
</svg>
