<svg width="20" height="20" viewBox="0 0 20 20" fill="none" xmlns="http://www.w3.org/2000/svg">
<path d="M9.99968 4.43345H5.07885C4.68487 4.43345 4.29476 4.51116 3.93085 4.66213C3.56694 4.8131 3.23639 5.03437 2.95811 5.31327C2.67984 5.59216 2.45931 5.92321 2.30914 6.28745C2.15898 6.65169 2.08214 7.04197 2.08302 7.43595V12.571C2.08302 13.3655 2.39865 14.1275 2.96047 14.6893C3.23866 14.9675 3.56892 15.1882 3.93239 15.3387C4.29586 15.4893 4.68543 15.5668 5.07885 15.5668H9.99968C10.7942 15.5668 11.5562 15.2512 12.1181 14.6893C12.6799 14.1275 12.9955 13.3655 12.9955 12.571V7.43678C12.9967 7.04263 12.9201 6.65212 12.7701 6.28764C12.6201 5.92316 12.3996 5.59187 12.1213 5.31278C11.8429 5.03368 11.5123 4.81227 11.1482 4.66123C10.7841 4.5102 10.3938 4.43251 9.99968 4.43262M17.9163 7.86512V12.1443C17.9163 12.3526 17.8572 12.5576 17.7455 12.7343C17.6324 12.9115 17.4723 13.0537 17.283 13.1451C17.095 13.2392 16.8832 13.2752 16.6747 13.2485C16.4691 13.2238 16.2741 13.1437 16.1105 13.0168L13.423 10.8601C13.2939 10.7539 13.1896 10.6208 13.1172 10.4701C13.0448 10.3194 13.0061 10.1548 13.0038 9.98762C13.0038 9.82095 13.0413 9.65678 13.1147 9.50845C13.1913 9.36845 13.2963 9.24595 13.423 9.14845L16.1105 7.00928C16.2741 6.88182 16.4695 6.80169 16.6755 6.77762C16.8838 6.75095 17.0955 6.78678 17.283 6.88012C17.4694 6.96957 17.6273 7.10902 17.7392 7.28294C17.851 7.45685 17.9123 7.6584 17.9163 7.86512Z" stroke="white" stroke-width="1.5" stroke-linecap="round" stroke-linejoin="round"/>
</svg>
