<svg width="20" height="20" viewBox="0 0 20 20" fill="none" xmlns="http://www.w3.org/2000/svg">
<path d="M5.83301 14.9999V13.3333M9.99967 14.9999V12.4999M14.1663 14.9999V10.8333M2.08301 9.99992C2.08301 6.26825 2.08301 4.40159 3.24217 3.24242C4.40134 2.08325 6.26717 2.08325 9.99967 2.08325C13.7313 2.08325 15.598 2.08325 16.7572 3.24242C17.9163 4.40159 17.9163 6.26742 17.9163 9.99992C17.9163 13.7316 17.9163 15.5983 16.7572 16.7574C15.598 17.9166 13.7322 17.9166 9.99967 17.9166C6.26801 17.9166 4.40134 17.9166 3.24217 16.7574C2.08301 15.5983 2.08301 13.7324 2.08301 9.99992Z" stroke="white" stroke-width="1.5" stroke-linecap="round" stroke-linejoin="round"/>
<path d="M4.99316 9.57148C6.789 9.63148 10.8615 9.36065 13.1782 5.68398M11.6598 5.23982L13.2232 4.98815C13.4132 4.96398 13.6932 5.11482 13.7623 5.29398L14.1748 6.65898" stroke="white" stroke-width="1.5" stroke-linecap="round" stroke-linejoin="round"/>
</svg>
