<svg width="20" height="21" viewBox="0 0 20 21" fill="none" xmlns="http://www.w3.org/2000/svg">
<path d="M11.667 18.9233H8.33366C5.19116 18.9233 3.61949 18.9233 2.64366 17.9467C1.66783 16.97 1.66699 15.3992 1.66699 12.2567V10.59C1.66699 7.44751 1.66699 5.87584 2.64366 4.90001C3.62033 3.92417 5.19116 3.92334 8.33366 3.92334H11.667C14.8095 3.92334 16.3812 3.92334 17.357 4.90001C18.3328 5.87667 18.3337 7.44751 18.3337 10.59V12.2567C18.3337 15.3992 18.3337 16.9708 17.357 17.9467C16.8128 18.4917 16.0837 18.7325 15.0003 18.8383M5.83366 3.92334V2.67334M14.167 3.92334V2.67334M17.917 8.09001H8.95866M1.66699 8.09001H4.89616" stroke="white" stroke-width="1.5" stroke-linecap="round"/>
<path d="M15 14.7568C15 14.9778 14.9122 15.1897 14.7559 15.346C14.5996 15.5023 14.3877 15.5901 14.1667 15.5901C13.9457 15.5901 13.7337 15.5023 13.5774 15.346C13.4211 15.1897 13.3333 14.9778 13.3333 14.7568C13.3333 14.5357 13.4211 14.3238 13.5774 14.1675C13.7337 14.0112 13.9457 13.9234 14.1667 13.9234C14.3877 13.9234 14.5996 14.0112 14.7559 14.1675C14.9122 14.3238 15 14.5357 15 14.7568ZM15 11.4234C15 11.6444 14.9122 11.8564 14.7559 12.0127C14.5996 12.169 14.3877 12.2568 14.1667 12.2568C13.9457 12.2568 13.7337 12.169 13.5774 12.0127C13.4211 11.8564 13.3333 11.6444 13.3333 11.4234C13.3333 11.2024 13.4211 10.9904 13.5774 10.8342C13.7337 10.6779 13.9457 10.5901 14.1667 10.5901C14.3877 10.5901 14.5996 10.6779 14.7559 10.8342C14.9122 10.9904 15 11.2024 15 11.4234ZM10.8333 14.7568C10.8333 14.9778 10.7455 15.1897 10.5893 15.346C10.433 15.5023 10.221 15.5901 10 15.5901C9.77899 15.5901 9.56702 15.5023 9.41074 15.346C9.25446 15.1897 9.16667 14.9778 9.16667 14.7568C9.16667 14.5357 9.25446 14.3238 9.41074 14.1675C9.56702 14.0112 9.77899 13.9234 10 13.9234C10.221 13.9234 10.433 14.0112 10.5893 14.1675C10.7455 14.3238 10.8333 14.5357 10.8333 14.7568ZM10.8333 11.4234C10.8333 11.6444 10.7455 11.8564 10.5893 12.0127C10.433 12.169 10.221 12.2568 10 12.2568C9.77899 12.2568 9.56702 12.169 9.41074 12.0127C9.25446 11.8564 9.16667 11.6444 9.16667 11.4234C9.16667 11.2024 9.25446 10.9904 9.41074 10.8342C9.56702 10.6779 9.77899 10.5901 10 10.5901C10.221 10.5901 10.433 10.6779 10.5893 10.8342C10.7455 10.9904 10.8333 11.2024 10.8333 11.4234ZM6.66667 14.7568C6.66667 14.9778 6.57887 15.1897 6.42259 15.346C6.26631 15.5023 6.05435 15.5901 5.83333 15.5901C5.61232 15.5901 5.40036 15.5023 5.24408 15.346C5.0878 15.1897 5 14.9778 5 14.7568C5 14.5357 5.0878 14.3238 5.24408 14.1675C5.40036 14.0112 5.61232 13.9234 5.83333 13.9234C6.05435 13.9234 6.26631 14.0112 6.42259 14.1675C6.57887 14.3238 6.66667 14.5357 6.66667 14.7568ZM6.66667 11.4234C6.66667 11.6444 6.57887 11.8564 6.42259 12.0127C6.26631 12.169 6.05435 12.2568 5.83333 12.2568C5.61232 12.2568 5.40036 12.169 5.24408 12.0127C5.0878 11.8564 5 11.6444 5 11.4234C5 11.2024 5.0878 10.9904 5.24408 10.8342C5.40036 10.6779 5.61232 10.5901 5.83333 10.5901C6.05435 10.5901 6.26631 10.6779 6.42259 10.8342C6.57887 10.9904 6.66667 11.2024 6.66667 11.4234Z" fill="white"/>
</svg>
