<svg width="20" height="21" viewBox="0 0 20 21" fill="none" xmlns="http://www.w3.org/2000/svg">
<path d="M14.1665 2.22663C14.784 2.34413 15.1507 2.47413 15.4665 2.86413C15.864 3.35246 15.8432 3.87996 15.8007 4.93496C15.6507 8.72913 14.8007 13.5133 10.0007 13.5133C5.20067 13.5133 4.34984 8.72996 4.19817 4.93496C4.15651 3.87996 4.13567 3.35163 4.53151 2.86413C4.92817 2.37579 5.40234 2.29579 6.35151 2.13579C7.55748 1.93824 8.77781 1.84152 9.99984 1.84663C10.5987 1.84774 11.1543 1.86663 11.6665 1.90329" stroke="white" stroke-width="1.5" stroke-linecap="round"/>
<path d="M15.8337 4.34668L16.6245 4.61001C17.4495 4.88501 17.862 5.02251 18.0978 5.35001C18.3337 5.67751 18.3337 6.11335 18.3337 6.98168V7.04251C18.3337 7.75918 18.3337 8.11835 18.1612 8.41168C17.9887 8.70501 17.6745 8.87918 17.0478 9.22835L14.5837 10.5967M4.16699 4.34668L3.37616 4.61001C2.55116 4.88501 2.13866 5.02251 1.90283 5.35001C1.66699 5.67751 1.66699 6.11335 1.66699 6.98168V7.04251C1.66699 7.75918 1.66699 8.11835 1.83949 8.41168C2.01199 8.70501 2.32616 8.87918 2.95283 9.22835L5.41699 10.5967" stroke="white" stroke-width="1.5"/>
<path d="M10 14.3467V16.0133" stroke="white" stroke-width="1.5" stroke-linecap="round"/>
<path d="M12.9173 18.5133H7.08398L7.36732 17.0999C7.40506 16.9111 7.50705 16.7411 7.65593 16.619C7.80481 16.4969 7.99141 16.43 8.18398 16.4299H11.8173C12.0099 16.43 12.1965 16.4969 12.3454 16.619C12.4943 16.7411 12.5962 16.9111 12.634 17.0999L12.9173 18.5133Z" stroke="white" stroke-width="1.5" stroke-linecap="round" stroke-linejoin="round"/>
<path d="M15 18.5132H5" stroke="white" stroke-width="1.5" stroke-linecap="round"/>
</svg>
