<svg width="30" height="30" viewBox="0 0 30 30" fill="none" xmlns="http://www.w3.org/2000/svg">
<path d="M5.625 18.125C5.625 15.6386 6.61272 13.254 8.37087 11.4959C10.129 9.73772 12.5136 8.75 15 8.75C17.4864 8.75 19.871 9.73772 21.6291 11.4959C23.3873 13.254 24.375 15.6386 24.375 18.125C24.375 20.6114 23.3873 22.996 21.6291 24.7541C19.871 26.5123 17.4864 27.5 15 27.5C12.5136 27.5 10.129 26.5123 8.37087 24.7541C6.61272 22.996 5.625 20.6114 5.625 18.125Z" stroke="#4CAF50" stroke-width="2.5" stroke-linecap="round" stroke-linejoin="round"/>
<path d="M16.95 2.5L13.7487 8.75M22.4988 2.5L18.9725 9.5025M13.05 2.5L15 5.7425M7.5 2.5L11.0263 9.375M11.25 18.125C11.25 16.0538 12.8687 14.375 14.8662 14.375H15.1338C17.1313 14.375 18.75 16.0538 18.75 18.125C18.75 20.1962 17.1313 21.875 15.1338 21.875H14.8662C12.8687 21.875 11.25 20.1962 11.25 18.125Z" stroke="#4CAF50" stroke-width="2.5" stroke-linecap="round" stroke-linejoin="round"/>
</svg>
