<svg width="30" height="30" viewBox="0 0 30 30" fill="none" xmlns="http://www.w3.org/2000/svg">
<path d="M21.2502 3.07004C22.1765 3.24629 22.7265 3.44129 23.2002 4.02629C23.7965 4.75879 23.7652 5.55004 23.7015 7.13254C23.4765 12.8238 22.2015 20 15.0015 20C7.8015 20 6.52525 12.825 6.29775 7.13254C6.23525 5.55004 6.204 4.75754 6.79775 4.02629C7.39275 3.29379 8.104 3.17379 9.52775 2.93379C11.3367 2.63747 13.1672 2.49238 15.0002 2.50004C15.8986 2.50171 16.7319 2.53004 17.5002 2.58504" stroke="#4CAF50" stroke-width="2.5" stroke-linecap="round"/>
<path d="M23.75 6.25L24.9362 6.645C26.1737 7.0575 26.7925 7.26375 27.1462 7.755C27.5 8.24625 27.5 8.9 27.5 10.2025V10.2937C27.5 11.3687 27.5 11.9075 27.2412 12.3475C26.9825 12.7875 26.5113 13.0487 25.5713 13.5725L21.875 15.625M6.25 6.25L5.06375 6.645C3.82625 7.0575 3.2075 7.26375 2.85375 7.755C2.5 8.24625 2.5 8.9 2.5 10.2025V10.2937C2.5 11.3687 2.5 11.9075 2.75875 12.3475C3.0175 12.7875 3.48875 13.0487 4.42875 13.5725L8.125 15.625" stroke="#4CAF50" stroke-width="2.5"/>
<path d="M15 21.25V23.75" stroke="#4CAF50" stroke-width="2.5" stroke-linecap="round"/>
<path d="M19.375 27.5H10.625L11.05 25.38C11.1066 25.0967 11.2596 24.8418 11.4829 24.6586C11.7062 24.4754 11.9861 24.3752 12.275 24.375H17.725C18.0139 24.3752 18.2938 24.4754 18.5171 24.6586C18.7404 24.8418 18.8934 25.0967 18.95 25.38L19.375 27.5Z" stroke="#4CAF50" stroke-width="2.5" stroke-linecap="round" stroke-linejoin="round"/>
<path d="M22.5 27.5H7.5" stroke="#4CAF50" stroke-width="2.5" stroke-linecap="round"/>
</svg>
